<svg version="1.0" xmlns="http://www.w3.org/2000/svg" width="700pt" height="700pt" viewBox="0 0 700 700"><g transform="translate(0.000000,700.000000) scale(0.100000,-0.100000)" fill="#000" stroke="none"><path d="M2775 6085c-363-51-698-197-985-428-102-82-3e2-277-3e2-295 0-5 84-87 188-183 103-95 213-198 245-228l57-54 73 69c270 260 494 374 793 404 125 13 3e2.0 419-30 302-76 469-282 453-560-4-69-11-92-47-165-59-120-159-220-450-454-344-274-472-407-569-589-75-141-118-353-98-485l7-47h393 394l-5 44c-8 64 14 2e2 44 276 66 168 221 338 517 564 374 286 498 412 593 601 55 108 75 189 80 325 9 217-27 395-117 575-172 345-516 565-1020 651-134 22-531 28-665 9z"/><path d="M2812 2480c-101-27-167-64-237-135-72-72-109-137-135-241-97-378 177-710 561-681 245 19 435 183 480 415 16 86 7 241-20 316-39 109-113 204-209 264-116 75-3e2 1e2-440 62z"/><path d="M4133 2430c-168-14-407-68-569-129l-49-19-3-170-2-170 78 39c184 90 404 139 628 139 167 0 264-18 369-70 170-83 259-223 267-420l3-65-385-5c-348-5-395-8-488-28-144-31-257-75-345-132-127-84-203-184-254-335-25-75-27-92-27-255-1-164 1-180 26-250 39-111 74-167 152-245 122-122 288-189 5e2-204 338-23 6e2 64 798 266 68 69 125 139 147 181 12 23 13 22 60-40 169-222 407-355 711-398 111-16 370-13 496 5 143 21 314 64 442 111l102 38v172 173l-93-44c-132-62-279-111-410-137-158-32-434-32-551 0-242 66-408 225-485 462-20 62-51 222-51 261 0 18 26 19 835 19h835v173c0 112-6 207-16 268-74 437-349 729-754 8e2-102 17-315 15-421-5-214-40-398-134-539-275l-66-66-34 48c-73 101-221 202-369 250-151 50-352 71-538 57zm1941-325c101-26 166-65 246-145 114-113 166-232 185-417l7-73h-651-651l6 43c21 145 80 293 154 385 76 95 199 169 335 203 91 23 288 25 369 4zm-1221-940c-10-442-249-732-624-752-340-19-552 186-509 494 26 193 138 294 376 339 125 23 273 31 534 30l225-1-2-110z"/></g></svg>